# xmcd
#
# Track frame offsets:
#	167
#	14881
#	35509
#	60158
#	79178
#	92327
#	116162
#	129699
#	149713
#	172755
#	198673
#	217403
#	242839
#	268415
#	286582
#	314117
#
# Disc length: 4451
#
# Revision: 3
# Processed by: cddbd v1.5.1PL0 Copyright (c) Steve Scherf et al.
# Submitted via: CDex 1.51
# Normalized: r2:TDELIM( - )
#
DISCID=fc116110
DTITLE=Compilation of Blues Guitarists - Blues Guitar Heroes CD2/2
DYEAR=2003
DGENRE=Blues
TTITLE0=Eric Clapton - Hoochie coochie man
TTITLE1=Rory Gallagher - Tatoo'd lady
TTITLE2=Ten Years After - I woke up this morning
TTITLE3=Jon Mayall and the Bluesbreakers - Wake up call
TTITLE4=Gary Moore - Walking by myself
TTITLE5=Paul Personne - Loco loco
TTITLE6=Elmore James - Dust my broom
TTITLE7=Buddy Guy - Mustang Sally
TTITLE8=Lucky Peterson - Compared to what
TTITLE9=RobertCray - Nothing against  you
TTITLE10=Luther Allison - I'm back
TTITLE11=John Lee Hooker - The Healer
TTITLE12=Ben Harper - The woman in you
TTITLE13=J J Cale - Guitar man
TTITLE14=Duke Robillard - Use what you got
TTITLE15=John Hammond - The first time I met the blues
EXTD=YEAR: 2003
EXTT0=
EXTT1=
EXTT2=
EXTT3=
EXTT4=
EXTT5=
EXTT6=
EXTT7=
EXTT8=
EXTT9=
EXTT10=
EXTT11=
EXTT12=
EXTT13=
EXTT14=
EXTT15=
PLAYORDER=
